<svg width="35" height="34" viewBox="0 0 35 34" fill="none" xmlns="http://www.w3.org/2000/svg">
<path d="M21 17H4V18H21V17Z" fill="#D97757"/>
<path d="M21 18H4V19H21V18Z" fill="#D97757"/>
<path d="M6 19H4V20H6V19Z" fill="#D97757"/>
<path d="M8 19H6V20H8V19Z" fill="#040000"/>
<path d="M17 19H8V20H17V19Z" fill="#D97757"/>
<path d="M19 19H17V20H19V19Z" fill="#040000"/>
<path d="M21 19H19V20H21V19Z" fill="#D97757"/>
<path d="M6 20H4V21H6V20Z" fill="#D97757"/>
<path d="M8 20H6V21H8V20Z" fill="#040000"/>
<path d="M17 20H8V21H17V20Z" fill="#D97757"/>
<path d="M19 20H17V21H19V20Z" fill="#040000"/>
<path d="M21 20H19V21H21V20Z" fill="#D97757"/>
<path d="M25 21H0V22H25V21Z" fill="#D97757"/>
<path d="M25 22H0V23H25V22Z" fill="#D97757"/>
<path d="M25 23H0V24H25V23Z" fill="#D97757"/>
<path d="M25 24H0V25H25V24Z" fill="#D97757"/>
<path d="M21 25H4V26H21V25Z" fill="#D97757"/>
<path d="M21 26H4V27H21V26Z" fill="#D97757"/>
<path d="M21 27H4V28H21V27Z" fill="#D97757"/>
<path d="M21 28H4V29H21V28Z" fill="#D97757"/>
<path d="M6 29H4V30H6V29Z" fill="#D97757"/>
<path d="M10 29H8V30H10V29Z" fill="#D97757"/>
<path d="M17 29H15V30H17V29Z" fill="#D97757"/>
<path d="M21 29H19V30H21V29Z" fill="#D97757"/>
<path d="M6 30H4V31H6V30Z" fill="#D97757"/>
<path d="M10 30H8V31H10V30Z" fill="#D97757"/>
<path d="M17 30H15V31H17V30Z" fill="#D97757"/>
<path d="M21 30H19V31H21V30Z" fill="#D97757"/>
<path d="M6 31H4V32H6V31Z" fill="#D97757"/>
<path d="M10 31H8V32H10V31Z" fill="#D97757"/>
<path d="M17 31H15V32H17V31Z" fill="#D97757"/>
<path d="M21 31H19V32H21V31Z" fill="#D97757"/>
<path d="M6 32H4V33H6V32Z" fill="#D97757"/>
<path d="M10 32H8V33H10V32Z" fill="#D97757"/>
<path d="M17 32H15V33H17V32Z" fill="#D97757"/>
<path d="M21 32H19V33H21V32Z" fill="#D97757"/>
</svg>
