<svg width="35" height="34" viewBox="0 0 35 34" fill="none" xmlns="http://www.w3.org/2000/svg">
<path d="M30 9H27V10H30V9Z" fill="#D0C8D8"/>
<path d="M31 10H26V11H31V10Z" fill="#D0C8D8"/>
<path d="M26 11H25V12H26V11Z" fill="#D0C8D8"/>
<path d="M27 11H26V17H27V11Z" fill="#D0C8D8"/>
<path d="M32 11H27V12H32V11Z" fill="#D0C8D8"/>
<path d="M26 12H25V13H26V12Z" fill="#D0C8D8"/>
<path d="M26 13H25V14H26V13Z" fill="#D0C8D8"/>
<path d="M33 12H27V13H33V12Z" fill="#D0C8D8"/>
<path d="M32 13H27V14H32V13Z" fill="#D0C8D8"/>
<path d="M33 13H32V14H33V13Z" fill="#D0C8D8"/>
<path d="M21 14H16V15H21V14Z" fill="#D97757"/>
<path d="M26 14H24V15H26V14Z" fill="#D0C8D8"/>
<path d="M32 14H27V15H32V14Z" fill="#D0C8D8"/>
<path d="M21 15H10V16H21V15Z" fill="#D97757"/>
<path d="M24 15H22V16H24V15Z" fill="#542430"/>
<path d="M26 15H24V16H26V15Z" fill="#D0C8D8"/>
<path d="M31 15H27V16H31V15Z" fill="#D0C8D8"/>
<path d="M6 16H4V17H6V16Z" fill="#A66045"/>
<path d="M18 16H6V17H18V16Z" fill="#D97757"/>
<path d="M21 16H18V17H21V16Z" fill="#040000"/>
<path d="M23 16H22V17H23V16Z" fill="#A66045"/>
<path d="M26 16H23V17H26V16Z" fill="#D0C8D8"/>
<path d="M30 16H27V17H30V16Z" fill="#D0C8D8"/>
<path d="M6 17H4V18H6V17Z" fill="#A66045"/>
<path d="M18 17H6V18H18V17Z" fill="#D97757"/>
<path d="M21 17H18V18H21V17Z" fill="#040000"/>
<path d="M25 17H22V18H25V17Z" fill="#542430"/>
<path d="M26 17H25V18H26V17Z" fill="#D0C8D8"/>
<path d="M6 18H4V19H6V18Z" fill="#A66045"/>
<path d="M9 18H6V19H9V18Z" fill="#D97757"/>
<path d="M11 18H9V19H11V18Z" fill="#040000"/>
<path d="M23 18H11V19H23V18Z" fill="#D97757"/>
<path d="M6 19H4V20H6V19Z" fill="#A66045"/>
<path d="M9 19H6V20H9V19Z" fill="#D97757"/>
<path d="M11 19H9V20H11V19Z" fill="#040000"/>
<path d="M23 19H11V20H23V19Z" fill="#D97757"/>
<path d="M6 20H4V21H6V20Z" fill="#A66045"/>
<path d="M23 20H6V21H23V20Z" fill="#D97757"/>
<path d="M6 21H4V22H6V21Z" fill="#A66045"/>
<path d="M23 21H6V22H23V21Z" fill="#D97757"/>
<path d="M6 22H4V23H6V22Z" fill="#A66045"/>
<path d="M22 22H6V23H22V22Z" fill="#D97757"/>
<path d="M23 22H22V23H23V22Z" fill="#542430"/>
<path d="M2 23H0V24H2V23Z" fill="#A66045"/>
<path d="M21 23H2V24H21V23Z" fill="#D97757"/>
<path d="M2 24H0V25H2V24Z" fill="#A66045"/>
<path d="M21 24H2V25H21V24Z" fill="#D97757"/>
<path d="M2 25H0V26H2V25Z" fill="#A66045"/>
<path d="M21 25H2V26H21V25Z" fill="#D97757"/>
<path d="M2 26H0V27H2V26Z" fill="#A66045"/>
<path d="M21 26H2V27H21V26Z" fill="#D97757"/>
<path d="M6 27H4V28H6V27Z" fill="#A66045"/>
<path d="M21 27H6V28H21V27Z" fill="#D97757"/>
<path d="M6 28H4V29H6V28Z" fill="#A66045"/>
<path d="M11 28H6V29H11V28Z" fill="#D97757"/>
<path d="M15 28H13V29H15V28Z" fill="#D97757"/>
<path d="M19 28H17V29H19V28Z" fill="#D97757"/>
<path d="M6 29H5V30H6V29Z" fill="#A66045"/>
<path d="M7 29H6V30H7V29Z" fill="#D97757"/>
<path d="M11 29H9V30H11V29Z" fill="#D97757"/>
<path d="M15 29H13V30H15V29Z" fill="#D97757"/>
<path d="M19 29H17V30H19V29Z" fill="#D97757"/>
<path d="M6 30H5V31H6V30Z" fill="#A66045"/>
<path d="M7 30H6V31H7V30Z" fill="#D97757"/>
<path d="M11 30H9V31H11V30Z" fill="#D97757"/>
<path d="M15 30H13V31H15V30Z" fill="#D97757"/>
<path d="M19 30H17V31H19V30Z" fill="#D97757"/>
<path d="M6 31H5V32H6V31Z" fill="#A66045"/>
<path d="M7 31H6V32H7V31Z" fill="#D97757"/>
<path d="M11 31H9V32H11V31Z" fill="#D97757"/>
<path d="M15 31H13V32H15V31Z" fill="#D97757"/>
<path d="M19 31H17V32H19V31Z" fill="#D97757"/>
<path d="M6 32H5V33H6V32Z" fill="#A66045"/>
<path d="M7 32H6V33H7V32Z" fill="#D97757"/>
<path d="M11 32H9V33H11V32Z" fill="#D97757"/>
<path d="M15 32H13V33H15V32Z" fill="#D97757"/>
<path d="M19 32H17V33H19V32Z" fill="#D97757"/>
<path d="M6 33H5V34H6V33Z" fill="#A66045"/>
<path d="M7 33H6V34H7V33Z" fill="#D97757"/>
<path d="M11 33H9V34H11V33Z" fill="#D97757"/>
<path d="M15 33H13V34H15V33Z" fill="#D97757"/>
<path d="M19 33H17V34H19V33Z" fill="#D97757"/>
</svg>
