<svg width="35" height="34" viewBox="0 0 35 34" fill="none" xmlns="http://www.w3.org/2000/svg">
<path d="M33 4H29V5H33V4Z" fill="#D0C8D8"/>
<path d="M34 5H28V6H34V5Z" fill="#D0C8D8"/>
<path d="M35 6H27V7H35V6Z" fill="#D0C8D8"/>
<path d="M35 7H27V8H35V7Z" fill="#D0C8D8"/>
<path d="M35 8H27V9H35V8Z" fill="#D0C8D8"/>
<path d="M35 9H27V10H35V9Z" fill="#D0C8D8"/>
<path d="M34 10H28V11H34V10Z" fill="#D0C8D8"/>
<path d="M33 11H29V12H33V11Z" fill="#D0C8D8"/>
<path d="M5 18H4V19H5V18Z" fill="#A66045"/>
<path d="M20 18H5V19H20V18Z" fill="#D97757"/>
<path d="M5 19H4V20H5V19Z" fill="#A66045"/>
<path d="M20 19H5V20H20V19Z" fill="#D97757"/>
<path d="M25 19H22V20H25V19Z" fill="#542430"/>
<path d="M5 20H4V21H5V20Z" fill="#A66045"/>
<path d="M7 20H5V21H7V20Z" fill="#D97757"/>
<path d="M9 20H7V21H9V20Z" fill="#040000"/>
<path d="M16 20H9V21H16V20Z" fill="#D97757"/>
<path d="M18 20H16V21H18V20Z" fill="#040000"/>
<path d="M20 20H18V21H20V20Z" fill="#D97757"/>
<path d="M23 20H22V21H23V20Z" fill="#542430"/>
<path d="M24 20H23V21H24V20Z" fill="#D0C8D8"/>
<path d="M25 20H24V21H25V20Z" fill="#542430"/>
<path d="M5 21H4V22H5V21Z" fill="#A66045"/>
<path d="M6 21H5V22H6V21Z" fill="#D97757"/>
<path d="M7 21H6V22H7V21Z" fill="#040000"/>
<path d="M9 21H7V22H9V21Z" fill="#D97757"/>
<path d="M10 21H9V22H10V21Z" fill="#040000"/>
<path d="M15 21H10V22H15V21Z" fill="#D97757"/>
<path d="M16 21H15V22H16V21Z" fill="#040000"/>
<path d="M18 21H16V22H18V21Z" fill="#D97757"/>
<path d="M19 21H18V22H19V21Z" fill="#040000"/>
<path d="M20 21H19V22H20V21Z" fill="#D97757"/>
<path d="M25 21H22V22H25V21Z" fill="#542430"/>
<path d="M1 22H0V23H1V22Z" fill="#A66045"/>
<path d="M23 22H1V23H23V22Z" fill="#D97757"/>
<path d="M1 23H0V24H1V23Z" fill="#A66045"/>
<path d="M23 23H1V24H23V23Z" fill="#D97757"/>
<path d="M1 24H0V25H1V24Z" fill="#A66045"/>
<path d="M23 24H1V25H23V24Z" fill="#D97757"/>
<path d="M1 25H0V26H1V25Z" fill="#A66045"/>
<path d="M23 25H1V26H23V25Z" fill="#D97757"/>
<path d="M5 26H4V27H5V26Z" fill="#A66045"/>
<path d="M20 26H5V27H20V26Z" fill="#D97757"/>
<path d="M5 27H4V28H5V27Z" fill="#A66045"/>
<path d="M20 27H5V28H20V27Z" fill="#D97757"/>
<path d="M5 28H4V29H5V28Z" fill="#A66045"/>
<path d="M20 28H5V29H20V28Z" fill="#D97757"/>
<path d="M5 29H4V30H5V29Z" fill="#A66045"/>
<path d="M20 29H5V30H20V29Z" fill="#D97757"/>
<path d="M5 30H4V31H5V30Z" fill="#A66045"/>
<path d="M20 30H5V31H20V30Z" fill="#D97757"/>
<path d="M6 31H5V32H6V31Z" fill="#A66045"/>
<path d="M7 31H6V32H7V31Z" fill="#D97757"/>
<path d="M11 31H9V32H11V31Z" fill="#D97757"/>
<path d="M15 31H13V32H15V31Z" fill="#D97757"/>
<path d="M19 31H17V32H19V31Z" fill="#D97757"/>
<path d="M6 32H5V33H6V32Z" fill="#A66045"/>
<path d="M7 32H6V33H7V32Z" fill="#D97757"/>
<path d="M11 32H9V33H11V32Z" fill="#D97757"/>
<path d="M15 32H13V33H15V32Z" fill="#D97757"/>
<path d="M19 32H17V33H19V32Z" fill="#D97757"/>
<path d="M6 33H5V34H6V33Z" fill="#A66045"/>
<path d="M7 33H6V34H7V33Z" fill="#D97757"/>
<path d="M11 33H9V34H11V33Z" fill="#D97757"/>
<path d="M15 33H13V34H15V33Z" fill="#D97757"/>
<path d="M19 33H17V34H19V33Z" fill="#D97757"/>
</svg>
