<svg width="35" height="34" viewBox="0 0 35 34" fill="none" xmlns="http://www.w3.org/2000/svg">
<path d="M5 19H4V20H5V19Z" fill="#A66045"/>
<path d="M21 19H5V20H21V19Z" fill="#D97757"/>
<path d="M5 20H4V21H5V20Z" fill="#A66045"/>
<path d="M21 20H5V21H21V20Z" fill="#D97757"/>
<path d="M25 20H22V21H25V20Z" fill="#542430"/>
<path d="M5 21H4V22H5V21Z" fill="#A66045"/>
<path d="M21 21H5V22H21V21Z" fill="#D97757"/>
<path d="M23 21H22V22H23V21Z" fill="#542430"/>
<path d="M24 21H23V22H24V21Z" fill="#D0C8D8"/>
<path d="M25 21H24V22H25V21Z" fill="#542430"/>
<path d="M5 22H4V23H5V22Z" fill="#A66045"/>
<path d="M7 22H5V23H7V22Z" fill="#D97757"/>
<path d="M10 22H7V23H10V22Z" fill="#040000"/>
<path d="M17 22H10V23H17V22Z" fill="#D97757"/>
<path d="M20 22H17V23H20V22Z" fill="#040000"/>
<path d="M21 22H20V23H21V22Z" fill="#D97757"/>
<path d="M25 22H22V23H25V22Z" fill="#542430"/>
<path d="M1 23H0V24H1V23Z" fill="#A66045"/>
<path d="M24 23H1V24H24V23Z" fill="#D97757"/>
<path d="M1 24H0V25H1V24Z" fill="#A66045"/>
<path d="M24 24H1V25H24V24Z" fill="#D97757"/>
<path d="M1 25H0V26H1V25Z" fill="#A66045"/>
<path d="M24 25H1V26H24V25Z" fill="#D97757"/>
<path d="M1 26H0V27H1V26Z" fill="#A66045"/>
<path d="M23 26H1V27H23V26Z" fill="#D97757"/>
<path d="M24 26H23V27H24V26Z" fill="#542430"/>
<path d="M5 27H4V28H5V27Z" fill="#A66045"/>
<path d="M21 27H5V28H21V27Z" fill="#D97757"/>
<path d="M5 28H4V29H5V28Z" fill="#A66045"/>
<path d="M21 28H5V29H21V28Z" fill="#D97757"/>
<path d="M5 29H4V30H5V29Z" fill="#A66045"/>
<path d="M21 29H5V30H21V29Z" fill="#D97757"/>
<path d="M5 30H4V31H5V30Z" fill="#A66045"/>
<path d="M21 30H5V31H21V30Z" fill="#D97757"/>
<path d="M6 31H5V32H6V31Z" fill="#A66045"/>
<path d="M7 31H6V32H7V31Z" fill="#D97757"/>
<path d="M11 31H10V32H11V31Z" fill="#D97757"/>
<path d="M15 31H14V32H15V31Z" fill="#D97757"/>
<path d="M20 31H18V32H20V31Z" fill="#D97757"/>
<path d="M6 32H5V33H6V32Z" fill="#A66045"/>
<path d="M7 32H6V33H7V32Z" fill="#D97757"/>
<path d="M11 32H10V33H11V32Z" fill="#D97757"/>
<path d="M15 32H14V33H15V32Z" fill="#D97757"/>
<path d="M20 32H18V33H20V32Z" fill="#D97757"/>
<path d="M6 33H5V34H6V33Z" fill="#A66045"/>
<path d="M7 33H6V34H7V33Z" fill="#D97757"/>
<path d="M11 33H10V34H11V33Z" fill="#D97757"/>
<path d="M15 33H14V34H15V33Z" fill="#D97757"/>
<path d="M20 33H18V34H20V33Z" fill="#D97757"/>
</svg>
