<svg width="35" height="34" viewBox="0 0 35 34" fill="none" xmlns="http://www.w3.org/2000/svg">
<path d="M23 4H22V5H23V4Z" fill="#D0C8D8"/>
<path d="M21 18H12V19H21V18Z" fill="#D97757"/>
<path d="M6 19H4V20H6V19Z" fill="#A66045"/>
<path d="M18 19H6V20H18V19Z" fill="#D97757"/>
<path d="M20 19H18V20H20V19Z" fill="#040000"/>
<path d="M21 19H20V20H21V19Z" fill="#D97757"/>
<path d="M23 19H22V20H23V19Z" fill="#542430"/>
<path d="M25 19H24V20H25V19Z" fill="#542430"/>
<path d="M6 20H4V21H6V20Z" fill="#A66045"/>
<path d="M9 20H6V21H9V20Z" fill="#D97757"/>
<path d="M11 20H9V21H11V20Z" fill="#040000"/>
<path d="M18 20H11V21H18V20Z" fill="#D97757"/>
<path d="M20 20H18V21H20V20Z" fill="#040000"/>
<path d="M21 20H20V21H21V20Z" fill="#D97757"/>
<path d="M23 20H22V21H23V20Z" fill="#542430"/>
<path d="M25 20H24V21H25V20Z" fill="#542430"/>
<path d="M6 21H4V22H6V21Z" fill="#A66045"/>
<path d="M9 21H6V22H9V21Z" fill="#D97757"/>
<path d="M11 21H9V22H11V21Z" fill="#040000"/>
<path d="M24 21H11V22H24V21Z" fill="#D97757"/>
<path d="M6 22H4V23H6V22Z" fill="#A66045"/>
<path d="M24 22H6V23H24V22Z" fill="#D97757"/>
<path d="M1 23H0V24H1V23Z" fill="#A66045"/>
<path d="M24 23H1V24H24V23Z" fill="#D97757"/>
<path d="M1 24H0V25H1V24Z" fill="#A66045"/>
<path d="M23 24H1V25H23V24Z" fill="#D97757"/>
<path d="M24 24H23V25H24V24Z" fill="#542430"/>
<path d="M1 25H0V26H1V25Z" fill="#A66045"/>
<path d="M21 25H1V26H21V25Z" fill="#D97757"/>
<path d="M1 26H0V27H1V26Z" fill="#A66045"/>
<path d="M21 26H1V27H21V26Z" fill="#D97757"/>
<path d="M5 27H4V28H5V27Z" fill="#A66045"/>
<path d="M21 27H5V28H21V27Z" fill="#D97757"/>
<path d="M5 28H4V29H5V28Z" fill="#A66045"/>
<path d="M21 28H5V29H21V28Z" fill="#D97757"/>
<path d="M5 29H4V30H5V29Z" fill="#A66045"/>
<path d="M16 29H5V30H16V29Z" fill="#D97757"/>
<path d="M20 29H18V30H20V29Z" fill="#D97757"/>
<path d="M6 30H5V31H6V30Z" fill="#A66045"/>
<path d="M7 30H6V31H7V30Z" fill="#D97757"/>
<path d="M11 30H10V31H11V30Z" fill="#D97757"/>
<path d="M16 30H14V31H16V30Z" fill="#D97757"/>
<path d="M20 30H18V31H20V30Z" fill="#D97757"/>
<path d="M6 31H5V32H6V31Z" fill="#A66045"/>
<path d="M7 31H6V32H7V31Z" fill="#D97757"/>
<path d="M11 31H10V32H11V31Z" fill="#D97757"/>
<path d="M16 31H14V32H16V31Z" fill="#D97757"/>
<path d="M20 31H18V32H20V31Z" fill="#D97757"/>
<path d="M6 32H5V33H6V32Z" fill="#A66045"/>
<path d="M7 32H6V33H7V32Z" fill="#D97757"/>
<path d="M11 32H10V33H11V32Z" fill="#D97757"/>
<path d="M16 32H14V33H16V32Z" fill="#D97757"/>
<path d="M20 32H18V33H20V32Z" fill="#D97757"/>
<path d="M6 33H5V34H6V33Z" fill="#A66045"/>
<path d="M7 33H6V34H7V33Z" fill="#D97757"/>
<path d="M11 33H10V34H11V33Z" fill="#D97757"/>
<path d="M16 33H14V34H16V33Z" fill="#D97757"/>
<path d="M20 33H18V34H20V33Z" fill="#D97757"/>
</svg>
