<svg width="35" height="34" viewBox="0 0 35 34" fill="none" xmlns="http://www.w3.org/2000/svg">
<path d="M28 0H27V1H28V0Z" fill="#D0C8D8"/>
<path d="M31 0H30V1H31V0Z" fill="#D0C8D8"/>
<path d="M26 1H25V2H26V1Z" fill="#D0C8D8"/>
<path d="M29 1H28V2H29V1Z" fill="#D0C8D8"/>
<path d="M35 1H34V2H35V1Z" fill="#D0C8D8"/>
<path d="M27 4H26V5H27V4Z" fill="#D0C8D8"/>
<path d="M34 5H33V6H34V5Z" fill="#D0C8D8"/>
<path d="M35 6H34V7H35V6Z" fill="#D0C8D8"/>
<path d="M29 7H28V8H29V7Z" fill="#D0C8D8"/>
<path d="M21 16H11V17H21V16Z" fill="#D97757"/>
<path d="M6 17H4V18H6V17Z" fill="#A66045"/>
<path d="M18 17H6V18H18V17Z" fill="#D97757"/>
<path d="M20 17H18V18H20V17Z" fill="#040000"/>
<path d="M21 17H20V18H21V17Z" fill="#D97757"/>
<path d="M23 17H22V18H23V17Z" fill="#542430"/>
<path d="M25 17H24V18H25V17Z" fill="#542430"/>
<path d="M6 18H4V19H6V18Z" fill="#A66045"/>
<path d="M9 18H6V19H9V18Z" fill="#D97757"/>
<path d="M10 18H8V19H10V18Z" fill="#040000"/>
<path d="M18 18H10V19H18V18Z" fill="#D97757"/>
<path d="M20 18H18V19H20V18Z" fill="#040000"/>
<path d="M21 18H20V19H21V18Z" fill="#D97757"/>
<path d="M23 18H22V19H23V18Z" fill="#542430"/>
<path d="M25 18H24V19H25V18Z" fill="#542430"/>
<path d="M6 19H4V20H6V19Z" fill="#A66045"/>
<path d="M8 19H6V20H8V19Z" fill="#D97757"/>
<path d="M10 19H8V20H10V19Z" fill="#040000"/>
<path d="M18 19H10V20H18V19Z" fill="#D97757"/>
<path d="M20 19H18V20H20V19Z" fill="#040000"/>
<path d="M21 19H20V20H21V19Z" fill="#D97757"/>
<path d="M25 19H22V20H25V19Z" fill="#542430"/>
<path d="M6 20H4V21H6V20Z" fill="#A66045"/>
<path d="M8 20H6V21H8V20Z" fill="#D97757"/>
<path d="M10 20H8V21H10V20Z" fill="#040000"/>
<path d="M24 20H10V21H24V20Z" fill="#D97757"/>
<path d="M6 21H4V22H6V21Z" fill="#A66045"/>
<path d="M24 21H6V22H24V21Z" fill="#D97757"/>
<path d="M1 22H0V23H1V22Z" fill="#A66045"/>
<path d="M24 22H1V23H24V22Z" fill="#D97757"/>
<path d="M1 23H0V24H1V23Z" fill="#A66045"/>
<path d="M23 23H1V24H23V23Z" fill="#D97757"/>
<path d="M24 23H23V24H24V23Z" fill="#542430"/>
<path d="M1 24H0V25H1V24Z" fill="#A66045"/>
<path d="M21 24H1V25H21V24Z" fill="#D97757"/>
<path d="M1 25H0V26H1V25Z" fill="#A66045"/>
<path d="M21 25H1V26H21V25Z" fill="#D97757"/>
<path d="M5 26H4V27H5V26Z" fill="#A66045"/>
<path d="M21 26H5V27H21V26Z" fill="#D97757"/>
<path d="M5 27H4V28H5V27Z" fill="#A66045"/>
<path d="M21 27H5V28H21V27Z" fill="#D97757"/>
<path d="M5 28H4V29H5V28Z" fill="#A66045"/>
<path d="M15 28H5V29H15V28Z" fill="#D97757"/>
<path d="M20 28H18V29H20V28Z" fill="#D97757"/>
<path d="M6 29H5V30H6V29Z" fill="#A66045"/>
<path d="M7 29H6V30H7V29Z" fill="#D97757"/>
<path d="M11 29H10V30H11V29Z" fill="#D97757"/>
<path d="M15 29H14V30H15V29Z" fill="#D97757"/>
<path d="M20 29H18V30H20V29Z" fill="#D97757"/>
<path d="M6 30H5V31H6V30Z" fill="#A66045"/>
<path d="M7 30H6V31H7V30Z" fill="#D97757"/>
<path d="M11 30H10V31H11V30Z" fill="#D97757"/>
<path d="M15 30H14V31H15V30Z" fill="#D97757"/>
<path d="M20 30H18V31H20V30Z" fill="#D97757"/>
<path d="M6 31H5V32H6V31Z" fill="#A66045"/>
<path d="M7 31H6V32H7V31Z" fill="#D97757"/>
<path d="M11 31H10V32H11V31Z" fill="#D97757"/>
<path d="M15 31H14V32H15V31Z" fill="#D97757"/>
<path d="M20 31H18V32H20V31Z" fill="#D97757"/>
<path d="M6 32H5V33H6V32Z" fill="#A66045"/>
<path d="M7 32H6V33H7V32Z" fill="#D97757"/>
<path d="M11 32H10V33H11V32Z" fill="#D97757"/>
<path d="M15 32H14V33H15V32Z" fill="#D97757"/>
<path d="M20 32H18V33H20V32Z" fill="#D97757"/>
</svg>
