<svg width="35" height="34" viewBox="0 0 35 34" fill="none" xmlns="http://www.w3.org/2000/svg">
<path d="M5 18H4V19H5V18Z" fill="#A66045"/>
<path d="M20 18H5V19H20V18Z" fill="#D97757"/>
<path d="M5 19H4V20H5V19Z" fill="#A66045"/>
<path d="M20 19H5V20H20V19Z" fill="#D97757"/>
<path d="M24 19H21V20H24V19Z" fill="#542430"/>
<path d="M5 20H4V21H5V20Z" fill="#A66045"/>
<path d="M7 20H5V21H7V20Z" fill="#D97757"/>
<path d="M10 20H7V21H10V20Z" fill="#040000"/>
<path d="M16 20H10V21H16V20Z" fill="#D97757"/>
<path d="M19 20H16V21H19V20Z" fill="#040000"/>
<path d="M20 20H19V21H20V20Z" fill="#D97757"/>
<path d="M22 20H21V21H22V20Z" fill="#542430"/>
<path d="M23 20H22V21H23V20Z" fill="#D0C8D8"/>
<path d="M24 20H23V21H24V20Z" fill="#542430"/>
<path d="M5 21H4V22H5V21Z" fill="#A66045"/>
<path d="M8 21H5V22H8V21Z" fill="#D97757"/>
<path d="M9 21H8V22H9V21Z" fill="#040000"/>
<path d="M17 21H9V22H17V21Z" fill="#D97757"/>
<path d="M18 21H17V22H18V21Z" fill="#040000"/>
<path d="M20 21H18V22H20V21Z" fill="#D97757"/>
<path d="M24 21H21V22H24V21Z" fill="#542430"/>
<path d="M1 22H0V23H1V22Z" fill="#A66045"/>
<path d="M23 22H1V23H23V22Z" fill="#D97757"/>
<path d="M1 23H0V24H1V23Z" fill="#A66045"/>
<path d="M23 23H1V24H23V23Z" fill="#D97757"/>
<path d="M1 24H0V25H1V24Z" fill="#A66045"/>
<path d="M23 24H1V25H23V24Z" fill="#D97757"/>
<path d="M1 25H0V26H1V25Z" fill="#A66045"/>
<path d="M22 25H1V26H22V25Z" fill="#D97757"/>
<path d="M23 25H22V26H23V25Z" fill="#542430"/>
<path d="M5 26H4V27H5V26Z" fill="#A66045"/>
<path d="M20 26H5V27H20V26Z" fill="#D97757"/>
<path d="M5 27H4V28H5V27Z" fill="#A66045"/>
<path d="M20 27H5V28H20V27Z" fill="#D97757"/>
<path d="M5 28H4V29H5V28Z" fill="#A66045"/>
<path d="M20 28H5V29H20V28Z" fill="#D97757"/>
<path d="M5 29H4V30H5V29Z" fill="#A66045"/>
<path d="M20 29H5V30H20V29Z" fill="#D97757"/>
<path d="M6 30H5V31H6V30Z" fill="#A66045"/>
<path d="M7 30H6V31H7V30Z" fill="#D97757"/>
<path d="M11 30H9V31H11V30Z" fill="#D97757"/>
<path d="M15 30H13V31H15V30Z" fill="#D97757"/>
<path d="M19 30H17V31H19V30Z" fill="#D97757"/>
<path d="M6 31H5V32H6V31Z" fill="#A66045"/>
<path d="M7 31H6V32H7V31Z" fill="#D97757"/>
<path d="M11 31H9V32H11V31Z" fill="#D97757"/>
<path d="M15 31H13V32H15V31Z" fill="#D97757"/>
<path d="M19 31H17V32H19V31Z" fill="#D97757"/>
<path d="M6 32H5V33H6V32Z" fill="#A66045"/>
<path d="M7 32H6V33H7V32Z" fill="#D97757"/>
<path d="M11 32H9V33H11V32Z" fill="#D97757"/>
<path d="M15 32H13V33H15V32Z" fill="#D97757"/>
<path d="M19 32H17V33H19V32Z" fill="#D97757"/>
</svg>
