<svg width="35" height="34" viewBox="0 0 35 34" fill="none" xmlns="http://www.w3.org/2000/svg">
<path d="M28 12H25V13H28V12Z" fill="#D0C8D8"/>
<path d="M29 13H24V14H29V13Z" fill="#D0C8D8"/>
<path d="M29 14H23V15H29V14Z" fill="#D0C8D8"/>
<path d="M20 15H16V16H20V15Z" fill="#D97757"/>
<path d="M29 15H23V16H29V15Z" fill="#D0C8D8"/>
<path d="M20 16H10V17H20V16Z" fill="#D97757"/>
<path d="M22 16H21V17H22V16Z" fill="#542430"/>
<path d="M23 16H22V17H23V16Z" fill="#D0C8D8"/>
<path d="M24 16H23V17H24V16Z" fill="#542430"/>
<path d="M28 16H24V17H28V16Z" fill="#D0C8D8"/>
<path d="M6 17H4V18H6V17Z" fill="#A66045"/>
<path d="M18 17H6V18H18V17Z" fill="#D97757"/>
<path d="M20 17H18V18H20V17Z" fill="#040000"/>
<path d="M22 17H21V18H22V17Z" fill="#542430"/>
<path d="M23 17H22V18H23V17Z" fill="#D0C8D8"/>
<path d="M24 17H23V18H24V17Z" fill="#542430"/>
<path d="M27 17H24V18H27V17Z" fill="#D0C8D8"/>
<path d="M6 18H4V19H6V18Z" fill="#A66045"/>
<path d="M9 18H6V19H9V18Z" fill="#D97757"/>
<path d="M11 18H9V19H11V18Z" fill="#040000"/>
<path d="M18 18H11V19H18V18Z" fill="#D97757"/>
<path d="M20 18H18V19H20V18Z" fill="#040000"/>
<path d="M22 18H21V19H22V18Z" fill="#542430"/>
<path d="M26 18H22V19H26V18Z" fill="#D0C8D8"/>
<path d="M6 19H4V20H6V19Z" fill="#A66045"/>
<path d="M9 19H6V20H9V19Z" fill="#D97757"/>
<path d="M11 19H9V20H11V19Z" fill="#040000"/>
<path d="M23 19H11V20H23V19Z" fill="#D97757"/>
<path d="M6 20H4V21H6V20Z" fill="#A66045"/>
<path d="M23 20H6V21H23V20Z" fill="#D97757"/>
<path d="M6 21H4V22H6V21Z" fill="#A66045"/>
<path d="M23 21H6V22H23V21Z" fill="#D97757"/>
<path d="M6 22H4V23H6V22Z" fill="#A66045"/>
<path d="M22 22H6V23H22V22Z" fill="#D97757"/>
<path d="M23 22H22V23H23V22Z" fill="#542430"/>
<path d="M2 23H0V24H2V23Z" fill="#A66045"/>
<path d="M20 23H2V24H20V23Z" fill="#D97757"/>
<path d="M2 24H0V25H2V24Z" fill="#A66045"/>
<path d="M20 24H2V25H20V24Z" fill="#D97757"/>
<path d="M2 25H0V26H2V25Z" fill="#A66045"/>
<path d="M20 25H2V26H20V25Z" fill="#D97757"/>
<path d="M2 26H0V27H2V26Z" fill="#A66045"/>
<path d="M20 26H2V27H20V26Z" fill="#D97757"/>
<path d="M6 27H4V28H6V27Z" fill="#A66045"/>
<path d="M20 27H6V28H20V27Z" fill="#D97757"/>
<path d="M6 28H4V29H6V28Z" fill="#A66045"/>
<path d="M11 28H6V29H11V28Z" fill="#D97757"/>
<path d="M15 28H13V29H15V28Z" fill="#D97757"/>
<path d="M19 28H17V29H19V28Z" fill="#D97757"/>
<path d="M6 29H5V30H6V29Z" fill="#A66045"/>
<path d="M7 29H6V30H7V29Z" fill="#D97757"/>
<path d="M11 29H9V30H11V29Z" fill="#D97757"/>
<path d="M15 29H13V30H15V29Z" fill="#D97757"/>
<path d="M19 29H17V30H19V29Z" fill="#D97757"/>
<path d="M6 30H5V31H6V30Z" fill="#A66045"/>
<path d="M7 30H6V31H7V30Z" fill="#D97757"/>
<path d="M11 30H9V31H11V30Z" fill="#D97757"/>
<path d="M15 30H13V31H15V30Z" fill="#D97757"/>
<path d="M19 30H17V31H19V30Z" fill="#D97757"/>
<path d="M6 31H5V32H6V31Z" fill="#A66045"/>
<path d="M7 31H6V32H7V31Z" fill="#D97757"/>
<path d="M11 31H9V32H11V31Z" fill="#D97757"/>
<path d="M15 31H13V32H15V31Z" fill="#D97757"/>
<path d="M19 31H17V32H19V31Z" fill="#D97757"/>
<path d="M6 32H5V33H6V32Z" fill="#A66045"/>
<path d="M7 32H6V33H7V32Z" fill="#D97757"/>
<path d="M11 32H9V33H11V32Z" fill="#D97757"/>
<path d="M15 32H13V33H15V32Z" fill="#D97757"/>
<path d="M19 32H17V33H19V32Z" fill="#D97757"/>
<path d="M6 33H5V34H6V33Z" fill="#A66045"/>
<path d="M7 33H6V34H7V33Z" fill="#D97757"/>
<path d="M11 33H9V34H11V33Z" fill="#D97757"/>
<path d="M15 33H13V34H15V33Z" fill="#D97757"/>
<path d="M19 33H17V34H19V33Z" fill="#D97757"/>
</svg>
