<svg width="35" height="34" viewBox="0 0 35 34" fill="none" xmlns="http://www.w3.org/2000/svg">
<path d="M33 7H29V8H33V7Z" fill="#D0C8D8"/>
<path d="M34 8H28V9H34V8Z" fill="#D0C8D8"/>
<path d="M35 9H27V10H35V9Z" fill="#D0C8D8"/>
<path d="M35 10H27V11H35V10Z" fill="#D0C8D8"/>
<path d="M35 11H27V12H35V11Z" fill="#D0C8D8"/>
<path d="M35 12H27V13H35V12Z" fill="#D0C8D8"/>
<path d="M34 13H28V14H34V13Z" fill="#D0C8D8"/>
<path d="M33 14H29V15H33V14Z" fill="#D0C8D8"/>
<path d="M5 18H4V19H5V18Z" fill="#A66045"/>
<path d="M20 18H5V19H20V18Z" fill="#D97757"/>
<path d="M5 19H4V20H5V19Z" fill="#A66045"/>
<path d="M20 19H5V20H20V19Z" fill="#D97757"/>
<path d="M25 19H22V20H25V19Z" fill="#542430"/>
<path d="M5 20H4V21H5V20Z" fill="#A66045"/>
<path d="M7 20H5V21H7V20Z" fill="#D97757"/>
<path d="M9 20H7V21H9V20Z" fill="#040000"/>
<path d="M16 20H9V21H16V20Z" fill="#D97757"/>
<path d="M18 20H16V21H18V20Z" fill="#040000"/>
<path d="M20 20H18V21H20V20Z" fill="#D97757"/>
<path d="M25 20H22V21H25V20Z" fill="#542430"/>
<path d="M5 21H4V22H5V21Z" fill="#A66045"/>
<path d="M6 21H5V22H6V21Z" fill="#D97757"/>
<path d="M7 21H6V22H7V21Z" fill="#040000"/>
<path d="M9 21H7V22H9V21Z" fill="#D97757"/>
<path d="M10 21H9V22H10V21Z" fill="#040000"/>
<path d="M15 21H10V22H15V21Z" fill="#D97757"/>
<path d="M20 21H19V22H20V21Z" fill="#D97757"/>
<path d="M25 21H22V22H25V21Z" fill="#542430"/>
<path d="M15 22H4V23H15V22Z" fill="#D97757"/>
<path d="M16 22H15V23H16V22Z" fill="#D97757"/>
<path d="M16 21H15V22H16V21Z" fill="#040000"/>
<path d="M18 22H16V23H18V22Z" fill="#D97757"/>
<path d="M18 21H16V22H18V21Z" fill="#D97757"/>
<path d="M19 22H18V23H19V22Z" fill="#D97757"/>
<path d="M19 21H18V22H19V21Z" fill="#040000"/>
<path d="M20 22H19V23H20V22Z" fill="#D97757"/>
<path d="M23 22H21V23H23V22Z" fill="#D97757"/>
<path d="M1 23H0V24H1V23Z" fill="#A66045"/>
<path d="M23 23H1V24H23V23Z" fill="#D97757"/>
<path d="M1 24H0V25H1V24Z" fill="#A66045"/>
<path d="M23 24H1V25H23V24Z" fill="#D97757"/>
<path d="M1 25H0V26H1V25Z" fill="#A66045"/>
<path d="M23 25H1V26H23V25Z" fill="#D97757"/>
<path d="M22 26H4V27H22V26Z" fill="#D97757"/>
<path d="M23 26H22V27H23V26Z" fill="#542430"/>
<path d="M5 27H4V28H5V27Z" fill="#A66045"/>
<path d="M20 27H5V28H20V27Z" fill="#D97757"/>
<path d="M5 28H4V29H5V28Z" fill="#A66045"/>
<path d="M20 28H5V29H20V28Z" fill="#D97757"/>
<path d="M5 29H4V30H5V29Z" fill="#A66045"/>
<path d="M20 29H5V30H20V29Z" fill="#D97757"/>
<path d="M5 30H4V31H5V30Z" fill="#A66045"/>
<path d="M20 30H5V31H20V30Z" fill="#D97757"/>
<path d="M6 31H5V32H6V31Z" fill="#A66045"/>
<path d="M7 31H6V32H7V31Z" fill="#D97757"/>
<path d="M11 31H9V32H11V31Z" fill="#D97757"/>
<path d="M15 31H13V32H15V31Z" fill="#D97757"/>
<path d="M19 31H17V32H19V31Z" fill="#D97757"/>
<path d="M6 32H5V33H6V32Z" fill="#A66045"/>
<path d="M7 32H6V33H7V32Z" fill="#D97757"/>
<path d="M11 32H9V33H11V32Z" fill="#D97757"/>
<path d="M15 32H13V33H15V32Z" fill="#D97757"/>
<path d="M19 32H17V33H19V32Z" fill="#D97757"/>
<path d="M6 33H5V34H6V33Z" fill="#A66045"/>
<path d="M7 33H6V34H7V33Z" fill="#D97757"/>
<path d="M11 33H9V34H11V33Z" fill="#D97757"/>
<path d="M15 33H13V34H15V33Z" fill="#D97757"/>
<path d="M19 33H17V34H19V33Z" fill="#D97757"/>
</svg>
