<svg width="35" height="34" viewBox="0 0 35 34" fill="none" xmlns="http://www.w3.org/2000/svg">
<path d="M13 0H8V1H13V0Z" fill="#F0B04C"/>
<path d="M14 1H7V2H14V1Z" fill="#F0B04C"/>
<path d="M15 2H6V3H15V2Z" fill="#F0B04C"/>
<path d="M15 3H6V4H15V3Z" fill="#F0B04C"/>
<path d="M8 4H6V5H8V4Z" fill="#F0B04C"/>
<path d="M9 4H8V5H9V4Z" fill="#C88428"/>
<path d="M12 4H9V5H12V4Z" fill="#F0B04C"/>
<path d="M13 4H12V5H13V4Z" fill="#C88428"/>
<path d="M15 4H13V5H15V4Z" fill="#F0B04C"/>
<path d="M8 5H6V6H8V5Z" fill="#F0B04C"/>
<path d="M9 5H8V6H9V5Z" fill="#C88428"/>
<path d="M12 5H9V6H12V5Z" fill="#F0B04C"/>
<path d="M13 5H12V6H13V5Z" fill="#C88428"/>
<path d="M15 5H13V6H15V5Z" fill="#F0B04C"/>
<path d="M9 6H7V7H9V6Z" fill="#F0B04C"/>
<path d="M10 6H9V7H10V6Z" fill="#C88428"/>
<path d="M11 6H10V7H11V6Z" fill="#F0B04C"/>
<path d="M12 6H11V7H12V6Z" fill="#C88428"/>
<path d="M14 6H12V7H14V6Z" fill="#F0B04C"/>
<path d="M9 7H8V8H9V7Z" fill="#F0B04C"/>
<path d="M10 7H9V8H10V7Z" fill="#C88428"/>
<path d="M11 7H10V8H11V7Z" fill="#F0B04C"/>
<path d="M12 7H11V8H12V7Z" fill="#C88428"/>
<path d="M13 7H12V8H13V7Z" fill="#F0B04C"/>
<path d="M13 8H8V9H13V8Z" fill="#88847C"/>
<path d="M13 9H8V10H13V9Z" fill="#C0BCB4"/>
<path d="M12 10H9V11H12V10Z" fill="#88847C"/>
<path d="M16 10H15V11H16V10Z" fill="#D97757"/>
<path d="M19 11H15V12H19V11Z" fill="#D97757"/>
<path d="M19 12H15V13H19V12Z" fill="#D97757"/>
<path d="M19 13H15V14H19V13Z" fill="#C4704C"/>
<path d="M19 14H15V15H19V14Z" fill="#C4704C"/>
<path d="M20 15H12V16H20V15Z" fill="#D97757"/>
<path d="M16 16H4V17H16V16Z" fill="#D97757"/>
<path d="M18 16H16V17H18V16Z" fill="black"/>
<path d="M20 16H18V17H20V16Z" fill="#D97757"/>
<path d="M6 17H4V18H6V17Z" fill="#D97757"/>
<path d="M8 17H6V18H8V17Z" fill="black"/>
<path d="M16 17H8V18H16V17Z" fill="#D97757"/>
<path d="M18 17H16V18H18V17Z" fill="black"/>
<path d="M20 17H18V18H20V17Z" fill="#D97757"/>
<path d="M6 18H4V19H6V18Z" fill="#D97757"/>
<path d="M8 18H6V19H8V18Z" fill="black"/>
<path d="M20 18H8V19H20V18Z" fill="#D97757"/>
<path d="M20 19H4V20H20V19Z" fill="#D97757"/>
<path d="M20 20H4V21H20V20Z" fill="#D97757"/>
<path d="M20 21H4V22H20V21Z" fill="#D97757"/>
<path d="M20 22H0V23H20V22Z" fill="#D97757"/>
<path d="M20 23H0V24H20V23Z" fill="#D97757"/>
<path d="M20 24H0V25H20V24Z" fill="#D97757"/>
<path d="M20 25H0V26H20V25Z" fill="#D97757"/>
<path d="M20 26H4V27H20V26Z" fill="#D97757"/>
<path d="M20 27H4V28H20V27Z" fill="#D97757"/>
<path d="M20 28H4V29H20V28Z" fill="#D97757"/>
<path d="M6 29H4V30H6V29Z" fill="#D97757"/>
<path d="M10 29H8V30H10V29Z" fill="#D97757"/>
<path d="M16 29H14V30H16V29Z" fill="#D97757"/>
<path d="M20 29H18V30H20V29Z" fill="#D97757"/>
<path d="M6 30H4V31H6V30Z" fill="#D97757"/>
<path d="M10 30H8V31H10V30Z" fill="#D97757"/>
<path d="M16 30H14V31H16V30Z" fill="#D97757"/>
<path d="M20 30H18V31H20V30Z" fill="#D97757"/>
<path d="M6 31H4V32H6V31Z" fill="#D97757"/>
<path d="M10 31H8V32H10V31Z" fill="#D97757"/>
<path d="M16 31H14V32H16V31Z" fill="#D97757"/>
<path d="M20 31H18V32H20V31Z" fill="#D97757"/>
<path d="M6 32H4V33H6V32Z" fill="#D97757"/>
<path d="M10 32H8V33H10V32Z" fill="#D97757"/>
<path d="M16 32H14V33H16V32Z" fill="#D97757"/>
<path d="M20 32H18V33H20V32Z" fill="#D97757"/>
<path d="M6 33H4V34H6V33Z" fill="#D97757"/>
<path d="M10 33H8V34H10V33Z" fill="#D97757"/>
<path d="M16 33H14V34H16V33Z" fill="#D97757"/>
<path d="M20 33H18V34H20V33Z" fill="#D97757"/>
</svg>
