<svg width="35" height="34" viewBox="0 0 35 34" fill="none" xmlns="http://www.w3.org/2000/svg">
<path d="M13 0H8V1H13V0Z" fill="#F0B04C"/>
<path d="M8 1H7V2H8V1Z" fill="#F0B04C"/>
<path d="M13 1H8V2H13V1Z" fill="#F8D898"/>
<path d="M14 1H13V2H14V1Z" fill="#F0B04C"/>
<path d="M7 2H6V3H7V2Z" fill="#F0B04C"/>
<path d="M9 2H7V3H9V2Z" fill="#F8D898"/>
<path d="M10 2H9V3H10V2Z" fill="#F8F4E8"/>
<path d="M11 2H10V3H11V2Z" fill="#F8D898"/>
<path d="M12 2H11V3H12V2Z" fill="#F8F4E8"/>
<path d="M14 2H12V3H14V2Z" fill="#F8D898"/>
<path d="M15 2H14V3H15V2Z" fill="#F0B04C"/>
<path d="M7 3H6V4H7V3Z" fill="#F0B04C"/>
<path d="M8 3H7V4H8V3Z" fill="#F8D898"/>
<path d="M9 3H8V4H9V3Z" fill="#F8F4E8"/>
<path d="M10 3H9V4H10V3Z" fill="#F8D898"/>
<path d="M11 3H10V4H11V3Z" fill="#F8F4E8"/>
<path d="M12 3H11V4H12V3Z" fill="#F8D898"/>
<path d="M13 3H12V4H13V3Z" fill="#F8F4E8"/>
<path d="M14 3H13V4H14V3Z" fill="#F8D898"/>
<path d="M15 3H14V4H15V3Z" fill="#F0B04C"/>
<path d="M7 4H6V5H7V4Z" fill="#F0B04C"/>
<path d="M8 4H7V5H8V4Z" fill="#F8D898"/>
<path d="M9 4H8V5H9V4Z" fill="#F0B04C"/>
<path d="M12 4H9V5H12V4Z" fill="#F8D898"/>
<path d="M13 4H12V5H13V4Z" fill="#F0B04C"/>
<path d="M14 4H13V5H14V4Z" fill="#F8D898"/>
<path d="M15 4H14V5H15V4Z" fill="#F0B04C"/>
<path d="M7 5H6V6H7V5Z" fill="#F0B04C"/>
<path d="M9 5H7V6H9V5Z" fill="#F8D898"/>
<path d="M10 5H9V6H10V5Z" fill="#F0B04C"/>
<path d="M11 5H10V6H11V5Z" fill="#F8D898"/>
<path d="M12 5H11V6H12V5Z" fill="#F0B04C"/>
<path d="M14 5H12V6H14V5Z" fill="#F8D898"/>
<path d="M15 5H14V6H15V5Z" fill="#F0B04C"/>
<path d="M8 6H7V7H8V6Z" fill="#F0B04C"/>
<path d="M9 6H8V7H9V6Z" fill="#F8D898"/>
<path d="M10 6H9V7H10V6Z" fill="#F0B04C"/>
<path d="M11 6H10V7H11V6Z" fill="#F8D898"/>
<path d="M12 6H11V7H12V6Z" fill="#F0B04C"/>
<path d="M13 6H12V7H13V6Z" fill="#F8D898"/>
<path d="M14 6H13V7H14V6Z" fill="#F0B04C"/>
<path d="M13 7H8V8H13V7Z" fill="#F0B04C"/>
<path d="M13 8H8V9H13V8Z" fill="#88847C"/>
<path d="M13 9H8V10H13V9Z" fill="#88847C"/>
<path d="M12 10H9V11H12V10Z" fill="#C0BCB4"/>
<path d="M12 11H9V12H12V11Z" fill="#88847C"/>
<path d="M16 11H15V12H16V11Z" fill="#D97757"/>
<path d="M19 12H15V13H19V12Z" fill="#D97757"/>
<path d="M19 13H15V14H19V13Z" fill="#D97757"/>
<path d="M19 14H15V15H19V14Z" fill="#C4704C"/>
<path d="M20 15H12V16H20V15Z" fill="#D97757"/>
<path d="M20 16H12V17H20V16Z" fill="#D97757"/>
<path d="M20 17H4V18H20V17Z" fill="#D97757"/>
<path d="M15 18H4V19H15V18Z" fill="#D97757"/>
<path d="M18 18H15V19H18V18Z" fill="black"/>
<path d="M20 18H18V19H20V18Z" fill="#D97757"/>
<path d="M20 19H4V20H20V19Z" fill="#D97757"/>
<path d="M6 20H4V21H6V20Z" fill="#D97757"/>
<path d="M9 20H6V21H9V20Z" fill="black"/>
<path d="M20 20H9V21H20V20Z" fill="#D97757"/>
<path d="M20 21H4V22H20V21Z" fill="#D97757"/>
<path d="M20 22H0V23H20V22Z" fill="#D97757"/>
<path d="M20 23H0V24H20V23Z" fill="#D97757"/>
<path d="M20 24H0V25H20V24Z" fill="#D97757"/>
<path d="M20 25H0V26H20V25Z" fill="#D97757"/>
<path d="M20 26H4V27H20V26Z" fill="#D97757"/>
<path d="M20 27H4V28H20V27Z" fill="#D97757"/>
<path d="M20 28H4V29H20V28Z" fill="#D97757"/>
<path d="M6 29H4V30H6V29Z" fill="#D97757"/>
<path d="M10 29H8V30H10V29Z" fill="#D97757"/>
<path d="M16 29H14V30H16V29Z" fill="#D97757"/>
<path d="M20 29H18V30H20V29Z" fill="#D97757"/>
<path d="M6 30H4V31H6V30Z" fill="#D97757"/>
<path d="M10 30H8V31H10V30Z" fill="#D97757"/>
<path d="M16 30H14V31H16V30Z" fill="#D97757"/>
<path d="M20 30H18V31H20V30Z" fill="#D97757"/>
<path d="M6 31H4V32H6V31Z" fill="#D97757"/>
<path d="M10 31H8V32H10V31Z" fill="#D97757"/>
<path d="M16 31H14V32H16V31Z" fill="#D97757"/>
<path d="M20 31H18V32H20V31Z" fill="#D97757"/>
<path d="M6 32H4V33H6V32Z" fill="#D97757"/>
<path d="M10 32H8V33H10V32Z" fill="#D97757"/>
<path d="M16 32H14V33H16V32Z" fill="#D97757"/>
<path d="M20 32H18V33H20V32Z" fill="#D97757"/>
<path d="M6 33H4V34H6V33Z" fill="#D97757"/>
<path d="M10 33H8V34H10V33Z" fill="#D97757"/>
<path d="M16 33H14V34H16V33Z" fill="#D97757"/>
<path d="M20 33H18V34H20V33Z" fill="#D97757"/>
</svg>
