<svg width="35" height="34" viewBox="0 0 35 34" fill="none" xmlns="http://www.w3.org/2000/svg">
<g clip-path="url(#clip0_279_2057)">
<path d="M19.6875 19H4.375V21.1875H19.6875V19Z" fill="#D97757"/>
<path d="M6.5625 21.1875H4.375V23.375H6.5625V21.1875Z" fill="#D97757"/>
<path d="M8.75 21.1875H6.5625V23.375H8.75V21.1875Z" fill="black"/>
<path d="M15.3125 21.1875H8.75V23.375H15.3125V21.1875Z" fill="#D97757"/>
<path d="M17.5 21.1875H15.3125V23.375H17.5V21.1875Z" fill="black"/>
<path d="M19.6875 21.1875H17.5V23.375H19.6875V21.1875Z" fill="#D97757"/>
<path d="M24.0625 23.375H0V25.5625H24.0625V23.375Z" fill="#D97757"/>
<path d="M19.6875 25.5625H4.375V27.75H19.6875V25.5625Z" fill="#D97757"/>
<path d="M19.6875 27.75H4.375V29.9375H19.6875V27.75Z" fill="#D97757"/>
<path d="M6.5625 29.9375H4.375V32.125H6.5625V29.9375Z" fill="#D97757"/>
<path d="M10.9375 29.9375H8.75V32.125H10.9375V29.9375Z" fill="#D97757"/>
<path d="M15.3125 29.9375H13.125V32.125H15.3125V29.9375Z" fill="#D97757"/>
<path d="M19.6875 29.9375H17.5V32.125H19.6875V29.9375Z" fill="#D97757"/>
<path d="M6.5625 32.125H4.375V34.3125H6.5625V32.125Z" fill="#D97757"/>
<path d="M10.9375 32.125H8.75V34.3125H10.9375V32.125Z" fill="#D97757"/>
<path d="M15.3125 32.125H13.125V34.3125H15.3125V32.125Z" fill="#D97757"/>
<path d="M19.6875 32.125H17.5V34.3125H19.6875V32.125Z" fill="#D97757"/>
</g>
<defs>
<clipPath id="clip0_279_2057">
<rect width="35" height="34" fill="white"/>
</clipPath>
</defs>
</svg>
