<svg width="35" height="34" viewBox="0 0 35 34" fill="none" xmlns="http://www.w3.org/2000/svg">
<g clip-path="url(#clip0_279_1991)">
<path d="M17.5 19H0V21.1875H17.5V19Z" fill="#D97757"/>
<path d="M6.5625 21.1875H0V23.375H6.5625V21.1875Z" fill="#D97757"/>
<path d="M8.75 21.1875H6.5625V23.375H8.75V21.1875Z" fill="black"/>
<path d="M15.3125 21.1875H8.75V23.375H15.3125V21.1875Z" fill="#D97757"/>
<path d="M17.5 21.1875H15.3125V23.375H17.5V21.1875Z" fill="black"/>
<path d="M21.875 21.1875H17.5V23.375H21.875V21.1875Z" fill="#D97757"/>
<path d="M6.5625 23.375H0V25.5625H6.5625V23.375Z" fill="#D97757"/>
<path d="M8.75 23.375H6.5625V25.5625H8.75V23.375Z" fill="black"/>
<path d="M15.3125 23.375H8.75V25.5625H15.3125V23.375Z" fill="#D97757"/>
<path d="M17.5 23.375H15.3125V25.5625H17.5V23.375Z" fill="black"/>
<path d="M21.875 23.375H17.5V25.5625H21.875V23.375Z" fill="#D97757"/>
<path d="M21.875 25.5625H0V27.75H21.875V25.5625Z" fill="#D97757"/>
<path d="M21.875 27.75H0V29.9375H21.875V27.75Z" fill="#D97757"/>
<path d="M2.1875 29.9375H0V32.125H2.1875V29.9375Z" fill="#D97757"/>
<path d="M6.5625 29.9375H4.375V32.125H6.5625V29.9375Z" fill="#D97757"/>
<path d="M13.125 29.9375H10.9375V32.125H13.125V29.9375Z" fill="#D97757"/>
<path d="M21.875 29.9375H15.3125V32.125H21.875V29.9375Z" fill="#D97757"/>
<path d="M2.1875 32.125H0V34.3125H2.1875V32.125Z" fill="#D97757"/>
<path d="M6.5625 32.125H4.375V34.3125H6.5625V32.125Z" fill="#D97757"/>
<path d="M13.125 32.125H10.9375V34.3125H13.125V32.125Z" fill="#D97757"/>
<path d="M21.875 32.125H15.3125V34.3125H21.875V32.125Z" fill="#D97757"/>
</g>
<defs>
<clipPath id="clip0_279_1991">
<rect width="35" height="34" fill="white"/>
</clipPath>
</defs>
</svg>
