<svg width="35" height="34" viewBox="0 0 35 34" fill="none" xmlns="http://www.w3.org/2000/svg">
<g clip-path="url(#clip0_279_1948)">
<path d="M21.875 19H4.375V21.1875H21.875V19Z" fill="#D97757"/>
<path d="M21.875 21.1875H0V23.375H21.875V21.1875Z" fill="#D97757"/>
<path d="M6.5625 23.375H0V25.5625H6.5625V23.375Z" fill="#D97757"/>
<path d="M8.75 23.375H6.5625V25.5625H8.75V23.375Z" fill="black"/>
<path d="M17.5 23.375H8.75V25.5625H17.5V23.375Z" fill="#D97757"/>
<path d="M19.6875 23.375H17.5V25.5625H19.6875V23.375Z" fill="black"/>
<path d="M21.875 23.375H19.6875V25.5625H21.875V23.375Z" fill="#D97757"/>
<path d="M24.0625 25.5625H4.375V27.75H24.0625V25.5625Z" fill="#D97757"/>
<path d="M21.875 27.75H4.375V29.9375H21.875V27.75Z" fill="#D97757"/>
<path d="M21.875 29.9375H4.375V32.125H21.875V29.9375Z" fill="#D97757"/>
<path d="M6.5625 32.125H4.375V34.3125H6.5625V32.125Z" fill="#D97757"/>
<path d="M10.9375 32.125H8.75V34.3125H10.9375V32.125Z" fill="#D97757"/>
<path d="M17.5 32.125H15.3125V34.3125H17.5V32.125Z" fill="#D97757"/>
<path d="M21.875 32.125H19.6875V34.3125H21.875V32.125Z" fill="#D97757"/>
</g>
<defs>
<clipPath id="clip0_279_1948">
<rect width="35" height="34" fill="white"/>
</clipPath>
</defs>
</svg>
