<svg width="35" height="34" viewBox="0 0 35 34" fill="none" xmlns="http://www.w3.org/2000/svg">
<path d="M6.5625 14H2.1875V16.1875H6.5625V14Z" fill="#D97757"/>
<path d="M17.5 14H13.125V16.1875H17.5V14Z" fill="#D97757"/>
<path d="M17.5 16.1875H0V18.375H17.5V16.1875Z" fill="#D97757"/>
<path d="M17.5 18.375H0V20.5625H17.5V18.375Z" fill="#D97757"/>
<path d="M2.1875 20.5625H0V22.75H2.1875V20.5625Z" fill="#D97757"/>
<path d="M4.375 20.5625H2.1875V22.75H4.375V20.5625Z" fill="black"/>
<path d="M13.125 20.5625H4.375V22.75H13.125V20.5625Z" fill="#D97757"/>
<path d="M15.3125 20.5625H13.125V22.75H15.3125V20.5625Z" fill="black"/>
<path d="M15.3125 22.75H0V24.9375H15.3125V22.75Z" fill="#D97757"/>
<path d="M15.3125 24.9375H0V27.125H15.3125V24.9375Z" fill="#D97757"/>
<path d="M15.3125 27.125H0V29.3125H15.3125V27.125Z" fill="#D97757"/>
<path d="M28.4375 27.125H26.25V29.3125H28.4375V27.125Z" fill="#9AA3AE"/>
<path d="M2.1875 29.3125H0V31.5H2.1875V29.3125Z" fill="#D97757"/>
<path d="M6.5625 29.3125H4.375V31.5H6.5625V29.3125Z" fill="#D97757"/>
<path d="M15.3125 29.3125H10.9375V31.5H15.3125V29.3125Z" fill="#D97757"/>
<path d="M26.25 29.3125H24.0625V31.5H26.25V29.3125Z" fill="#9AA3AE"/>
<path d="M2.1875 31.5H0V33.6875H2.1875V31.5Z" fill="#D97757"/>
<path d="M6.5625 31.5H4.375V33.6875H6.5625V31.5Z" fill="#D97757"/>
<path d="M13.125 31.5H10.9375V33.6875H13.125V31.5Z" fill="#D97757"/>
<path d="M24.0625 31.5H19.6875V33.6875H24.0625V31.5Z" fill="#9AA3AE"/>
</svg>
