<svg width="35" height="34" viewBox="0 0 35 34" fill="none" xmlns="http://www.w3.org/2000/svg">
<g clip-path="url(#clip0_279_2035)">
<path d="M15.3125 19H0V21.1875H15.3125V19Z" fill="#D97757"/>
<path d="M6.5625 21.1875H0V23.375H6.5625V21.1875Z" fill="#D97757"/>
<path d="M8.75 21.1875H6.5625V23.375H8.75V21.1875Z" fill="black"/>
<path d="M13.125 21.1875H8.75V23.375H13.125V21.1875Z" fill="#D97757"/>
<path d="M15.3125 21.1875H13.125V23.375H15.3125V21.1875Z" fill="black"/>
<path d="M19.6875 21.1875H15.3125V23.375H19.6875V21.1875Z" fill="#D97757"/>
<path d="M6.5625 23.375H0V25.5625H6.5625V23.375Z" fill="#D97757"/>
<path d="M8.75 23.375H6.5625V25.5625H8.75V23.375Z" fill="black"/>
<path d="M13.125 23.375H8.75V25.5625H13.125V23.375Z" fill="#D97757"/>
<path d="M15.3125 23.375H13.125V25.5625H15.3125V23.375Z" fill="black"/>
<path d="M19.6875 23.375H15.3125V25.5625H19.6875V23.375Z" fill="#D97757"/>
<path d="M19.6875 25.5625H0V27.75H19.6875V25.5625Z" fill="#D97757"/>
<path d="M26.25 25.5625H24.0625V27.75H26.25V25.5625Z" fill="#9AA3AE"/>
<path d="M19.6875 27.75H0V29.9375H19.6875V27.75Z" fill="#D97757"/>
<path d="M24.0625 27.75H21.875V29.9375H24.0625V27.75Z" fill="#9AA3AE"/>
<path d="M2.1875 29.9375H0V32.125H2.1875V29.9375Z" fill="#D97757"/>
<path d="M6.5625 29.9375H4.375V32.125H6.5625V29.9375Z" fill="#D97757"/>
<path d="M19.6875 29.9375H10.9375V32.125H19.6875V29.9375Z" fill="#D97757"/>
<path d="M2.1875 32.125H0V34.3125H2.1875V32.125Z" fill="#D97757"/>
<path d="M6.5625 32.125H4.375V34.3125H6.5625V32.125Z" fill="#D97757"/>
<path d="M19.6875 32.125H10.9375V34.3125H19.6875V32.125Z" fill="#D97757"/>
</g>
<defs>
<clipPath id="clip0_279_2035">
<rect width="35" height="34" fill="white"/>
</clipPath>
</defs>
</svg>
