<svg width="35" height="34" viewBox="0 0 35 34" fill="none" xmlns="http://www.w3.org/2000/svg">
<g clip-path="url(#clip0_279_1867)">
<path d="M17.5 21H0V23.1875H17.5V21Z" fill="#D97757"/>
<path d="M6.5625 23.1875H0V25.375H6.5625V23.1875Z" fill="#D97757"/>
<path d="M8.75 23.1875H6.5625V25.375H8.75V23.1875Z" fill="black"/>
<path d="M15.3125 23.1875H8.75V25.375H15.3125V23.1875Z" fill="#D97757"/>
<path d="M17.5 23.1875H15.3125V25.375H17.5V23.1875Z" fill="black"/>
<path d="M21.875 25.375H0V27.5625H21.875V25.375Z" fill="#D97757"/>
<path d="M21.875 27.5625H0V29.75H21.875V27.5625Z" fill="#D97757"/>
<path d="M21.875 29.75H0V31.9375H21.875V29.75Z" fill="#D97757"/>
<path d="M28.4375 29.75H26.25V31.9375H28.4375V29.75Z" fill="#9AA3AE"/>
<path d="M2.1875 31.9375H0V34.125H2.1875V31.9375Z" fill="#D97757"/>
<path d="M6.5625 31.9375H4.375V34.125H6.5625V31.9375Z" fill="#D97757"/>
<path d="M13.125 31.9375H10.9375V34.125H13.125V31.9375Z" fill="#D97757"/>
<path d="M21.875 31.9375H15.3125V34.125H21.875V31.9375Z" fill="#D97757"/>
</g>
<defs>
<clipPath id="clip0_279_1867">
<rect width="35" height="34" fill="white"/>
</clipPath>
</defs>
</svg>
