<svg width="35" height="34" viewBox="0 0 35 34" fill="none" xmlns="http://www.w3.org/2000/svg">
<g clip-path="url(#clip0_279_1933)">
<path d="M17.5 19H2.1875V21.1875H17.5V19Z" fill="#D97757"/>
<path d="M6.5625 21.1875H2.1875V23.375H6.5625V21.1875Z" fill="#D97757"/>
<path d="M8.75 21.1875H6.5625V23.375H8.75V21.1875Z" fill="black"/>
<path d="M15.3125 21.1875H8.75V23.375H15.3125V21.1875Z" fill="#D97757"/>
<path d="M21.875 23.375H0V25.5625H21.875V23.375Z" fill="#D97757"/>
<path d="M24.0625 25.5625H0V27.75H24.0625V25.5625Z" fill="#D97757"/>
<path d="M26.25 25.5625H24.0625V27.75H26.25V25.5625Z" fill="#9AA3AE"/>
<path d="M24.0625 27.75H2.1875V29.9375H24.0625V27.75Z" fill="#D97757"/>
<path d="M4.375 29.9375H2.1875V32.125H4.375V29.9375Z" fill="#D97757"/>
<path d="M8.75 29.9375H6.5625V32.125H8.75V29.9375Z" fill="#D97757"/>
<path d="M17.5 29.9375H15.3125V32.125H17.5V29.9375Z" fill="#D97757"/>
<path d="M4.375 32.125H2.1875V34.3125H4.375V32.125Z" fill="#D97757"/>
<path d="M8.75 32.125H6.5625V34.3125H8.75V32.125Z" fill="#D97757"/>
<path d="M17.5 32.125H15.3125V34.3125H17.5V32.125Z" fill="#D97757"/>
</g>
<defs>
<clipPath id="clip0_279_1933">
<rect width="35" height="34" fill="white"/>
</clipPath>
</defs>
</svg>
