<svg width="35" height="34" viewBox="0 0 35 34" fill="none" xmlns="http://www.w3.org/2000/svg">
<g clip-path="url(#clip0_279_1963)">
<path d="M19.6875 18.9375H4.375V21.125H19.6875V18.9375Z" fill="#D97757"/>
<path d="M19.6875 21.125H0V23.3125H19.6875V21.125Z" fill="#D97757"/>
<path d="M6.5625 23.3125H0V25.5H6.5625V23.3125Z" fill="#D97757"/>
<path d="M8.75 23.3125H6.5625V25.5H8.75V23.3125Z" fill="black"/>
<path d="M15.3125 23.3125H8.75V25.5H15.3125V23.3125Z" fill="#D97757"/>
<path d="M17.5 23.3125H15.3125V25.5H17.5V23.3125Z" fill="black"/>
<path d="M19.6875 23.3125H17.5V25.5H19.6875V23.3125Z" fill="#D97757"/>
<path d="M21.875 25.5H4.375V27.6875H21.875V25.5Z" fill="#D97757"/>
<path d="M21.875 27.6875H4.375V29.875H21.875V27.6875Z" fill="#D97757"/>
<path d="M19.6875 29.875H4.375V32.0625H19.6875V29.875Z" fill="#D97757"/>
<path d="M6.5625 32.0625H4.375V34.25H6.5625V32.0625Z" fill="#D97757"/>
<path d="M15.3125 32.0625H13.125V34.25H15.3125V32.0625Z" fill="#D97757"/>
<path d="M19.6875 32.0625H17.5V34.25H19.6875V32.0625Z" fill="#D97757"/>
</g>
<defs>
<clipPath id="clip0_279_1963">
<rect width="35" height="34" fill="white"/>
</clipPath>
</defs>
</svg>
