<svg width="35" height="34" viewBox="0 0 35 34" fill="none" xmlns="http://www.w3.org/2000/svg">
<g clip-path="url(#clip0_279_2144)">
<path d="M26.25 17H21.875V19.1875H26.25V17Z" fill="#9AA3AE"/>
<path d="M19.6875 19.1875H4.375V21.375H19.6875V19.1875Z" fill="#D97757"/>
<path d="M28.4375 19.1875H26.25V21.375H28.4375V19.1875Z" fill="#9AA3AE"/>
<path d="M6.5625 21.375H4.375V23.5625H6.5625V21.375Z" fill="#D97757"/>
<path d="M8.75 21.375H6.5625V23.5625H8.75V21.375Z" fill="black"/>
<path d="M15.3125 21.375H8.75V23.5625H15.3125V21.375Z" fill="#D97757"/>
<path d="M19.6875 21.375H15.3125V23.5625H19.6875V21.375Z" fill="black"/>
<path d="M24.0625 21.375H19.6875V23.5625H24.0625V21.375Z" fill="#D97757"/>
<path d="M24.0625 23.5625H0V25.75H24.0625V23.5625Z" fill="#D97757"/>
<path d="M21.875 25.75H0V27.9375H21.875V25.75Z" fill="#D97757"/>
<path d="M19.6875 27.9375H4.375V30.125H19.6875V27.9375Z" fill="#D97757"/>
<path d="M6.5625 30.125H4.375V32.3125H6.5625V30.125Z" fill="#D97757"/>
<path d="M10.9375 30.125H8.75V32.3125H10.9375V30.125Z" fill="#D97757"/>
<path d="M19.6875 30.125H15.3125V32.3125H19.6875V30.125Z" fill="#D97757"/>
<path d="M6.5625 32.3125H4.375V34.5H6.5625V32.3125Z" fill="#D97757"/>
<path d="M10.9375 32.3125H8.75V34.5H10.9375V32.3125Z" fill="#D97757"/>
</g>
<defs>
<clipPath id="clip0_279_2144">
<rect width="35" height="34" fill="white"/>
</clipPath>
</defs>
</svg>
