<svg width="35" height="34" viewBox="0 0 35 34" fill="none" xmlns="http://www.w3.org/2000/svg">
<g clip-path="url(#clip0_279_2878)">
<path d="M25 0H14V1H25V0Z" fill="#6498CC"/>
<path d="M25 1H14V2H25V1Z" fill="#6498CC"/>
<path d="M17 2H14V3H17V2Z" fill="#6498CC"/>
<path d="M19 2H18V3H19V2Z" fill="#6498CC"/>
<path d="M21 2H20V3H21V2Z" fill="#6498CC"/>
<path d="M25 2H22V3H25V2Z" fill="#6498CC"/>
<path d="M17 3H14V4H17V3Z" fill="#6498CC"/>
<path d="M19 3H18V4H19V3Z" fill="#6498CC"/>
<path d="M18 2.5H17V3H18V2.5Z" fill="black"/>
<path d="M18 2H17V2.5H18V2Z" fill="#6498CC"/>
<path d="M18 3.5H17V4H18V3.5Z" fill="#6498CC"/>
<path d="M19 2H18V3H19V2Z" fill="#6498CC"/>
<path d="M20 2.5H19V3H20V2.5Z" fill="black"/>
<path d="M20 3.5H19V4H20V3.5Z" fill="#6498CC"/>
<path d="M20 2H19V2.5H20V2Z" fill="#6498CC"/>
<path d="M21 2H20V3H21V2Z" fill="#6498CC"/>
<path d="M22 2.5H21V3H22V2.5Z" fill="black"/>
<path d="M22 2H21V2.5H22V2Z" fill="#6498CC"/>
<path d="M22 3.5H21V4H22V3.5Z" fill="#6498CC"/>
<path d="M18 3H17V3.5H18V3Z" fill="black"/>
<path d="M19 3H18V4H19V3Z" fill="#6498CC"/>
<path d="M20 3H19V3.5H20V3Z" fill="black"/>
<path d="M21 3H20V4H21V3Z" fill="#6498CC"/>
<path d="M22 3H21V3.5H22V3Z" fill="black"/>
<path d="M21 3H20V4H21V3Z" fill="#6498CC"/>
<path d="M25 3H22V4H25V3Z" fill="#6498CC"/>
<path d="M25 4H14V5H25V4Z" fill="#6498CC"/>
<path d="M25 5H14V6H25V5Z" fill="#6498CC"/>
<path d="M24 6H15V7H24V6Z" fill="#6498CC"/>
<path d="M21 7H18V8H21V7Z" fill="#6498CC"/>
<path d="M21 8H18V9H21V8Z" fill="#6498CC"/>
<path d="M20 9H18V10H20V9Z" fill="#6498CC"/>
<path d="M19 10H18V11H19V10Z" fill="#6498CC"/>
<path d="M24 12H19V13H24V12Z" fill="#E07C50"/>
<path d="M24 13H10V14H24V13Z" fill="#E07C50"/>
<path d="M24 14H9V15H24V14Z" fill="#E07C50"/>
<path d="M24 15H5V16H24V15Z" fill="#E07C50"/>
<path d="M18 16H5V17H18V16Z" fill="#E07C50"/>
<path d="M21 16H18V17H21V16Z" fill="black"/>
<path d="M26 16H21V17H26V16Z" fill="#E07C50"/>
<path d="M7 17H5V18H7V17Z" fill="#E07C50"/>
<path d="M11 17H7V18H11V17Z" fill="black"/>
<path d="M27 17H11V18H27V17Z" fill="#E07C50"/>
<path d="M27 18H5V19H27V18Z" fill="#E07C50"/>
<path d="M27 19H5V20H27V19Z" fill="#E07C50"/>
<path d="M27 20H5V21H27V20Z" fill="#E07C50"/>
<path d="M27 21H0V22H27V21Z" fill="#E07C50"/>
<path d="M26 22H0V23H26V22Z" fill="#E07C50"/>
<path d="M24 23H0V24H24V23Z" fill="#E07C50"/>
<path d="M24 24H0V25H24V24Z" fill="#E07C50"/>
<path d="M24 25H0V26H24V25Z" fill="#E07C50"/>
<path d="M24 26H5V27H24V26Z" fill="#E07C50"/>
<path d="M24 27H5V28H24V27Z" fill="#E07C50"/>
<path d="M14 28H5V29H14V28Z" fill="#E07C50"/>
<path d="M19 28H17V29H19V28Z" fill="#E07C50"/>
<path d="M24 28H21V29H24V28Z" fill="#E07C50"/>
<path d="M7 29H5V30H7V29Z" fill="#E07C50"/>
<path d="M12 29H9V30H12V29Z" fill="#E07C50"/>
<path d="M19 29H17V30H19V29Z" fill="#E07C50"/>
<path d="M24 29H21V30H24V29Z" fill="#E07C50"/>
<path d="M7 30H5V31H7V30Z" fill="#E07C50"/>
<path d="M12 30H9V31H12V30Z" fill="#E07C50"/>
<path d="M19 30H17V31H19V30Z" fill="#E07C50"/>
<path d="M24 30H21V31H24V30Z" fill="#E07C50"/>
<path d="M7 31H5V32H7V31Z" fill="#E07C50"/>
<path d="M12 31H9V32H12V31Z" fill="#E07C50"/>
<path d="M19 31H17V32H19V31Z" fill="#E07C50"/>
<path d="M24 31H21V32H24V31Z" fill="#E07C50"/>
<path d="M7 32H5V33H7V32Z" fill="#E07C50"/>
<path d="M12 32H9V33H12V32Z" fill="#E07C50"/>
<path d="M19 32H17V33H19V32Z" fill="#E07C50"/>
<path d="M24 32H21V33H24V32Z" fill="#E07C50"/>
<path d="M7 33H5V34H7V33Z" fill="#E07C50"/>
<path d="M12 33H9V34H12V33Z" fill="#E07C50"/>
<path d="M19 33H17V34H19V33Z" fill="#E07C50"/>
<path d="M24 33H21V34H24V33Z" fill="#E07C50"/>
</g>
<defs>
<clipPath id="clip0_279_2878">
<rect width="35" height="34" fill="white"/>
</clipPath>
</defs>
</svg>
