<svg width="35" height="34" viewBox="0 0 35 34" fill="none" xmlns="http://www.w3.org/2000/svg">
<path d="M9 2H1V3H9V2Z" fill="#6498CC"/>
<path d="M10 3H0V4H10V3Z" fill="#6498CC"/>
<path d="M10 4H0V5H10V4Z" fill="#6498CC"/>
<path d="M10 5H0V6H10V5Z" fill="#6498CC"/>
<path d="M5 6H0V7H5V6Z" fill="#6498CC"/>
<path d="M6 6H5V7H6V6Z" fill="black"/>
<path d="M7 6H6V7H7V6Z" fill="#6498CC"/>
<path d="M8 6H7V7H8V6Z" fill="black"/>
<path d="M10 6H8V7H10V6Z" fill="#6498CC"/>
<path d="M10 7H0V8H10V7Z" fill="#6498CC"/>
<path d="M10 8H0V9H10V8Z" fill="#6498CC"/>
<path d="M9 9H1V10H9V9Z" fill="#6498CC"/>
<path d="M7 10H3V11H7V10Z" fill="#6498CC"/>
<path d="M7 11H5V12H7V11Z" fill="#6498CC"/>
<path d="M7 12H5V13H7V12Z" fill="#6498CC"/>
<path d="M7 13H6V14H7V13Z" fill="#6498CC"/>
<path d="M23 16H5V17H23V16Z" fill="#C46C48"/>
<path d="M23 17H5V18H23V17Z" fill="#C46C48"/>
<path d="M23 18H5V19H23V18Z" fill="#C46C48"/>
<path d="M23 19H5V20H23V19Z" fill="#E07C50"/>
<path d="M23 20H5V21H23V20Z" fill="#E07C50"/>
<path d="M23 21H5V22H23V21Z" fill="#E07C50"/>
<path d="M23 22H5V23H23V22Z" fill="#E07C50"/>
<path d="M23 23H5V24H23V23Z" fill="#E07C50"/>
<path d="M23 24H5V25H23V24Z" fill="#E07C50"/>
<path d="M6 25H1V26H6V25Z" fill="#E07C50"/>
<path d="M9 25H6V26H9V25Z" fill="black"/>
<path d="M18 25H9V26H18V25Z" fill="#E07C50"/>
<path d="M21 25H18V26H21V25Z" fill="black"/>
<path d="M27 25H21V26H27V25Z" fill="#E07C50"/>
<path d="M27 26H1V27H27V26Z" fill="#E07C50"/>
<path d="M27 27H1V28H27V27Z" fill="#E07C50"/>
<path d="M27 28H1V29H27V28Z" fill="#E07C50"/>
<path d="M23 29H5V30H23V29Z" fill="#E07C50"/>
<path d="M7 30H5V31H7V30Z" fill="#E07C50"/>
<path d="M12 30H9V31H12V30Z" fill="#E07C50"/>
<path d="M19 30H16V31H19V30Z" fill="#E07C50"/>
<path d="M23 30H21V31H23V30Z" fill="#E07C50"/>
<path d="M7 31H5V32H7V31Z" fill="#C46C48"/>
<path d="M12 31H9V32H12V31Z" fill="#C46C48"/>
<path d="M19 31H16V32H19V31Z" fill="#C46C48"/>
<path d="M23 31H21V32H23V31Z" fill="#C46C48"/>
<path d="M7 32H5V33H7V32Z" fill="#E07C50"/>
<path d="M12 32H9V33H12V32Z" fill="#E07C50"/>
<path d="M19 32H16V33H19V32Z" fill="#E07C50"/>
<path d="M23 32H21V33H23V32Z" fill="#E07C50"/>
<path d="M7 33H5V34H7V33Z" fill="#E07C50"/>
<path d="M12 33H9V34H12V33Z" fill="#E07C50"/>
<path d="M19 33H16V34H19V33Z" fill="#E07C50"/>
<path d="M23 33H21V34H23V33Z" fill="#E07C50"/>
</svg>
