<svg width="35" height="34" viewBox="0 0 35 34" fill="none" xmlns="http://www.w3.org/2000/svg">
<g clip-path="url(#clip0_279_3006)">
<path d="M24 0H15V1H24V0Z" fill="#6498CC"/>
<path d="M25 1H14V2H25V1Z" fill="#6498CC"/>
<path d="M25 2H14V3H25V2Z" fill="#6498CC"/>
<path d="M17 3H14V4H17V3Z" fill="#6498CC"/>
<path d="M19 3H18V4H19V3Z" fill="#6498CC"/>
<path d="M25 3H20V4H25V3Z" fill="#6498CC"/>
<path d="M17 4H14V5H17V4Z" fill="#6498CC"/>
<path d="M19 4H18V5H19V4Z" fill="#6498CC"/>
<path d="M18 3.5H17V4.5H18V3.5Z" fill="black"/>
<path d="M18 3H17V3.5H18V3Z" fill="#6498CC"/>
<path d="M18 4.5H17V5H18V4.5Z" fill="#6498CC"/>
<path d="M20 3.5H19V4.5H20V3.5Z" fill="black"/>
<path d="M20 3H19V3.5H20V3Z" fill="#6498CC"/>
<path d="M20 4.5H19V5H20V4.5Z" fill="#6498CC"/>
<path d="M25 4H20V5H25V4Z" fill="#6498CC"/>
<path d="M25 5H14V6H25V5Z" fill="#6498CC"/>
<path d="M25 6H14V7H25V6Z" fill="#6498CC"/>
<path d="M24 7H15V8H24V7Z" fill="#6498CC"/>
<path d="M21 8H18V9H21V8Z" fill="#6498CC"/>
<path d="M21 9H18V10H21V9Z" fill="#6498CC"/>
<path d="M20 10H18V11H20V10Z" fill="#6498CC"/>
<path d="M19 11H18V12H19V11Z" fill="#6498CC"/>
<path d="M24 13H19V14H24V13Z" fill="#E07C50"/>
<path d="M24 14H10V15H24V14Z" fill="#E07C50"/>
<path d="M24 15H9V16H24V15Z" fill="#E07C50"/>
<path d="M24 16H5V17H24V16Z" fill="#E07C50"/>
<path d="M18 17H5V18H18V17Z" fill="#E07C50"/>
<path d="M21 17H18V18H21V17Z" fill="black"/>
<path d="M24 17H21V18H24V17Z" fill="#E07C50"/>
<path d="M7 18H5V19H7V18Z" fill="#E07C50"/>
<path d="M11 18H7V19H11V18Z" fill="black"/>
<path d="M27 18H11V19H27V18Z" fill="#E07C50"/>
<path d="M27 19H5V20H27V19Z" fill="#E07C50"/>
<path d="M27 20H5V21H27V20Z" fill="#E07C50"/>
<path d="M27 21H5V22H27V21Z" fill="#E07C50"/>
<path d="M27 22H0V23H27V22Z" fill="#E07C50"/>
<path d="M26 23H0V24H26V23Z" fill="#E07C50"/>
<path d="M24 24H0V25H24V24Z" fill="#E07C50"/>
<path d="M24 25H0V26H24V25Z" fill="#E07C50"/>
<path d="M24 26H0V27H24V26Z" fill="#E07C50"/>
<path d="M24 27H5V28H24V27Z" fill="#E07C50"/>
<path d="M24 28H5V29H24V28Z" fill="#E07C50"/>
<path d="M14 29H5V30H14V29Z" fill="#E07C50"/>
<path d="M19 29H17V30H19V29Z" fill="#E07C50"/>
<path d="M24 29H21V30H24V29Z" fill="#E07C50"/>
<path d="M7 30H5V31H7V30Z" fill="#E07C50"/>
<path d="M12 30H9V31H12V30Z" fill="#E07C50"/>
<path d="M19 30H17V31H19V30Z" fill="#E07C50"/>
<path d="M24 30H21V31H24V30Z" fill="#E07C50"/>
<path d="M7 31H5V32H7V31Z" fill="#E07C50"/>
<path d="M12 31H9V32H12V31Z" fill="#E07C50"/>
<path d="M19 31H17V32H19V31Z" fill="#E07C50"/>
<path d="M24 31H21V32H24V31Z" fill="#E07C50"/>
<path d="M7 32H5V33H7V32Z" fill="#E07C50"/>
<path d="M12 32H9V33H12V32Z" fill="#E07C50"/>
<path d="M19 32H17V33H19V32Z" fill="#E07C50"/>
<path d="M24 32H21V33H24V32Z" fill="#E07C50"/>
<path d="M7 33H5V34H7V33Z" fill="#E07C50"/>
<path d="M12 33H9V34H12V33Z" fill="#E07C50"/>
<path d="M19 33H17V34H19V33Z" fill="#E07C50"/>
<path d="M24 33H21V34H24V33Z" fill="#E07C50"/>
</g>
<defs>
<clipPath id="clip0_279_3006">
<rect width="35" height="34" fill="white"/>
</clipPath>
</defs>
</svg>
