<svg width="35" height="34" viewBox="0 0 35 34" fill="none" xmlns="http://www.w3.org/2000/svg">
<path d="M7 14H5V15H7V14Z" fill="#343430"/>
<path d="M9 14H7V15H9V14Z" fill="#40403C"/>
<path d="M20 14H9V15H20V14Z" fill="#585450"/>
<path d="M22 14H20V15H22V14Z" fill="#74644C"/>
<path d="M7 15H4V16H7V15Z" fill="#343430"/>
<path d="M9 15H7V16H9V15Z" fill="#40403C"/>
<path d="M20 15H9V16H20V15Z" fill="#585450"/>
<path d="M22 15H20V16H22V15Z" fill="#74644C"/>
<path d="M7 16H3V17H7V16Z" fill="#343430"/>
<path d="M9 16H7V17H9V16Z" fill="#40403C"/>
<path d="M19 16H9V17H19V16Z" fill="#585450"/>
<path d="M23 16H19V17H23V16Z" fill="#74644C"/>
<path d="M7 17H3V18H7V17Z" fill="#343430"/>
<path d="M9 17H7V18H9V17Z" fill="#40403C"/>
<path d="M19 17H9V18H19V17Z" fill="#585450"/>
<path d="M23 17H19V18H23V17Z" fill="#74644C"/>
<path d="M7 18H3V19H7V18Z" fill="#343430"/>
<path d="M9 18H7V19H9V18Z" fill="#40403C"/>
<path d="M10 18H9V19H10V18Z" fill="#544830"/>
<path d="M14 18H10V19H14V18Z" fill="#181818"/>
<path d="M16 18H14V19H16V18Z" fill="#8C847C"/>
<path d="M18 18H16V19H18V18Z" fill="#181818"/>
<path d="M21 18H18V19H21V18Z" fill="#8C847C"/>
<path d="M22 18H21V19H22V18Z" fill="#181818"/>
<path d="M23 18H22V19H23V18Z" fill="#74644C"/>
<path d="M7 19H3V20H7V19Z" fill="#343430"/>
<path d="M9 19H7V20H9V19Z" fill="#40403C"/>
<path d="M10 19H9V20H10V19Z" fill="#544830"/>
<path d="M14 19H10V20H14V19Z" fill="#181818"/>
<path d="M16 19H14V20H16V19Z" fill="#8C847C"/>
<path d="M18 19H16V20H18V19Z" fill="#181818"/>
<path d="M21 19H18V20H21V19Z" fill="#8C847C"/>
<path d="M22 19H21V20H22V19Z" fill="#181818"/>
<path d="M23 19H22V20H23V19Z" fill="#74644C"/>
<path d="M6 20H4V21H6V20Z" fill="#B85C40"/>
<path d="M7 20H6V21H7V20Z" fill="#343430"/>
<path d="M9 20H7V21H9V20Z" fill="#40403C"/>
<path d="M10 20H9V21H10V20Z" fill="#544830"/>
<path d="M14 20H10V21H14V20Z" fill="#181818"/>
<path d="M16 20H14V21H16V20Z" fill="#8C847C"/>
<path d="M18 20H16V21H18V20Z" fill="#181818"/>
<path d="M21 20H18V21H21V20Z" fill="#8C847C"/>
<path d="M22 20H21V21H22V20Z" fill="#181818"/>
<path d="M23 20H22V21H23V20Z" fill="#74644C"/>
<path d="M6 21H4V22H6V21Z" fill="#B85C40"/>
<path d="M7 21H6V22H7V21Z" fill="#343430"/>
<path d="M9 21H7V22H9V21Z" fill="#40403C"/>
<path d="M10 21H9V22H10V21Z" fill="#544830"/>
<path d="M17 21H10V22H17V21Z" fill="#181818"/>
<path d="M20 21H17V22H20V21Z" fill="#8C847C"/>
<path d="M22 21H20V22H22V21Z" fill="#181818"/>
<path d="M23 21H22V22H23V21Z" fill="#74644C"/>
<path d="M6 22H4V23H6V22Z" fill="#B85C40"/>
<path d="M7 22H6V23H7V22Z" fill="#343430"/>
<path d="M9 22H7V23H9V22Z" fill="#40403C"/>
<path d="M10 22H9V23H10V22Z" fill="#544830"/>
<path d="M17 22H10V23H17V22Z" fill="#181818"/>
<path d="M20 22H17V23H20V22Z" fill="#8C847C"/>
<path d="M22 22H20V23H22V22Z" fill="#181818"/>
<path d="M23 22H22V23H23V22Z" fill="#74644C"/>
<path d="M2 23H0V24H2V23Z" fill="#B85C40"/>
<path d="M6 23H2V24H6V23Z" fill="#D4684C"/>
<path d="M7 23H6V24H7V23Z" fill="#343430"/>
<path d="M9 23H7V24H9V23Z" fill="#40403C"/>
<path d="M17 23H9V24H17V23Z" fill="#585450"/>
<path d="M23 23H17V24H23V23Z" fill="#74644C"/>
<path d="M2 24H0V25H2V24Z" fill="#B85C40"/>
<path d="M6 24H2V25H6V24Z" fill="#D4684C"/>
<path d="M7 24H6V25H7V24Z" fill="#343430"/>
<path d="M9 24H7V25H9V24Z" fill="#40403C"/>
<path d="M16 24H9V25H16V24Z" fill="#585450"/>
<path d="M22 24H16V25H22V24Z" fill="#74644C"/>
<path d="M24 24H22V25H24V24Z" fill="#D4684C"/>
<path d="M2 25H0V26H2V25Z" fill="#B85C40"/>
<path d="M6 25H2V26H6V25Z" fill="#D4684C"/>
<path d="M7 25H6V26H7V25Z" fill="#343430"/>
<path d="M9 25H7V26H9V25Z" fill="#40403C"/>
<path d="M16 25H9V26H16V25Z" fill="#585450"/>
<path d="M22 25H16V26H22V25Z" fill="#74644C"/>
<path d="M24 25H22V26H24V25Z" fill="#D4684C"/>
<path d="M2 26H0V27H2V26Z" fill="#B85C40"/>
<path d="M6 26H2V27H6V26Z" fill="#D4684C"/>
<path d="M7 26H6V27H7V26Z" fill="#343430"/>
<path d="M9 26H7V27H9V26Z" fill="#40403C"/>
<path d="M16 26H9V27H16V26Z" fill="#585450"/>
<path d="M22 26H16V27H22V26Z" fill="#74644C"/>
<path d="M24 26H22V27H24V26Z" fill="#D4684C"/>
<path d="M6 27H4V28H6V27Z" fill="#B85C40"/>
<path d="M8 27H6V28H8V27Z" fill="#D4684C"/>
<path d="M9 27H8V28H9V27Z" fill="#40403C"/>
<path d="M16 27H9V28H16V27Z" fill="#585450"/>
<path d="M21 27H16V28H21V27Z" fill="#74644C"/>
<path d="M23 27H21V28H23V27Z" fill="#D4684C"/>
<path d="M27 27H23V28H27V27Z" fill="#7470B4"/>
<path d="M28 27H27V28H28V27Z" fill="#F0C06C"/>
<path d="M6 28H4V29H6V28Z" fill="#B85C40"/>
<path d="M20 28H6V29H20V28Z" fill="#D4684C"/>
<path d="M26 28H22V29H26V28Z" fill="#7470B4"/>
<path d="M6 29H4V30H6V29Z" fill="#B85C40"/>
<path d="M20 29H6V30H20V29Z" fill="#D4684C"/>
<path d="M24 29H23V30H24V29Z" fill="#F0C06C"/>
<path d="M25 29H24V30H25V29Z" fill="#FCF4E0"/>
<path d="M26 29H25V30H26V29Z" fill="#F0C06C"/>
<path d="M27 29H26V30H27V29Z" fill="#181818"/>
<path d="M6 30H3V31H6V30Z" fill="#B85C40"/>
<path d="M8 30H7V31H8V30Z" fill="#FCF4E0"/>
<path d="M10 30H8V31H10V30Z" fill="#D4684C"/>
<path d="M16 30H14V31H16V30Z" fill="#D4684C"/>
<path d="M20 30H18V31H20V30Z" fill="#D4684C"/>
<path d="M26 30H23V31H26V30Z" fill="#F0C06C"/>
<path d="M5 31H3V32H5V31Z" fill="#B85C40"/>
<path d="M9 31H7V32H9V31Z" fill="#D4684C"/>
<path d="M15 31H14V32H15V31Z" fill="#D4684C"/>
<path d="M20 31H18V32H20V31Z" fill="#D4684C"/>
<path d="M26 31H25V32H26V31Z" fill="#F0C06C"/>
<path d="M29 31H27V32H29V31Z" fill="#F0C06C"/>
<path d="M5 32H3V33H5V32Z" fill="#B85C40"/>
<path d="M9 32H7V33H9V32Z" fill="#D4684C"/>
<path d="M15 32H14V33H15V32Z" fill="#D4684C"/>
<path d="M20 32H18V33H20V32Z" fill="#D4684C"/>
<path d="M28 32H27V33H28V32Z" fill="#F0C06C"/>
<path d="M30 32H29V33H30V32Z" fill="#F0C06C"/>
</svg>
