<svg xmlns="http://www.w3.org/2000/svg" viewBox="0 0 35 34" shape-rendering="crispEdges">
<g class="p0">
    <rect x="4" y="17" width="17" height="1" fill="#e47c50"/>
    <rect x="4" y="18" width="17" height="1" fill="#e47c50"/>
    <rect x="4" y="19" width="2" height="1" fill="#e47c50"/>
    <rect x="6" y="19" width="3" height="1" fill="#040000"/>
    <rect x="9" y="19" width="8" height="1" fill="#e47c50"/>
    <rect x="17" y="19" width="2" height="1" fill="#040000"/>
    <rect x="19" y="19" width="2" height="1" fill="#e47c50"/>
    <rect x="4" y="20" width="2" height="1" fill="#e47c50"/>
    <rect x="6" y="20" width="3" height="1" fill="#040000"/>
    <rect x="9" y="20" width="8" height="1" fill="#e47c50"/>
    <rect x="17" y="20" width="2" height="1" fill="#040000"/>
    <rect x="19" y="20" width="2" height="1" fill="#e47c50"/>
    <rect x="0" y="21" width="25" height="1" fill="#e47c50"/>
    <rect x="0" y="22" width="25" height="1" fill="#e47c50"/>
    <rect x="0" y="23" width="25" height="1" fill="#e47c50"/>
    <rect x="0" y="24" width="25" height="1" fill="#e47c50"/>
    <rect x="4" y="25" width="17" height="1" fill="#e47c50"/>
    <rect x="4" y="26" width="17" height="1" fill="#e47c50"/>
    <rect x="4" y="27" width="17" height="1" fill="#e47c50"/>
    <rect x="4" y="28" width="17" height="1" fill="#e47c50"/>
    <rect x="4" y="29" width="2" height="1" fill="#e47c50"/>
    <rect x="8" y="29" width="2" height="1" fill="#e47c50"/>
    <rect x="15" y="29" width="2" height="1" fill="#e47c50"/>
    <rect x="19" y="29" width="2" height="1" fill="#e47c50"/>
    <rect x="4" y="30" width="2" height="1" fill="#e47c50"/>
    <rect x="8" y="30" width="2" height="1" fill="#e47c50"/>
    <rect x="15" y="30" width="2" height="1" fill="#e47c50"/>
    <rect x="19" y="30" width="2" height="1" fill="#e47c50"/>
    <rect x="4" y="31" width="2" height="1" fill="#e47c50"/>
    <rect x="8" y="31" width="2" height="1" fill="#e47c50"/>
    <rect x="15" y="31" width="2" height="1" fill="#e47c50"/>
    <rect x="19" y="31" width="2" height="1" fill="#e47c50"/>
    <rect x="4" y="32" width="2" height="1" fill="#e47c50"/>
    <rect x="8" y="32" width="2" height="1" fill="#e47c50"/>
    <rect x="15" y="32" width="2" height="1" fill="#e47c50"/>
    <rect x="19" y="32" width="2" height="1" fill="#e47c50"/>
  </g>
</svg>
